<svg width="135" height="47" viewBox="0 0 135 47" fill="none" xmlns="http://www.w3.org/2000/svg">
<path d="M0.0858634 18.4V0.563993H3.95986V7.63599H11.8639V0.563993H15.7379V18.4H11.8639V10.912H3.95986V18.4H0.0858634ZM30.6074 18.712C28.7181 18.712 27.0888 18.374 25.7194 17.698C24.3501 17.022 23.3014 15.9993 22.5734 14.63C21.8454 13.2607 21.4814 11.5447 21.4814 9.48199C21.4814 7.38466 21.8454 5.65999 22.5734 4.30799C23.3014 2.93866 24.3501 1.92466 25.7194 1.26599C27.0888 0.589993 28.7181 0.251994 30.6074 0.251994C32.5314 0.251994 34.1694 0.589993 35.5214 1.26599C36.8908 1.92466 37.9394 2.93866 38.6674 4.30799C39.3954 5.65999 39.7594 7.38466 39.7594 9.48199C39.7594 11.5447 39.3954 13.2607 38.6674 14.63C37.9394 15.9993 36.8908 17.022 35.5214 17.698C34.1694 18.374 32.5314 18.712 30.6074 18.712ZM30.6074 15.54C31.4568 15.54 32.2021 15.4187 32.8434 15.176C33.4848 14.9333 34.0221 14.5693 34.4554 14.084C34.8888 13.5987 35.2181 13.0093 35.4434 12.316C35.6688 11.6053 35.7814 10.7993 35.7814 9.89799V9.09199C35.7814 8.17333 35.6688 7.35866 35.4434 6.64799C35.2181 5.93733 34.8888 5.34799 34.4554 4.87999C34.0221 4.39466 33.4848 4.03066 32.8434 3.78799C32.2021 3.54533 31.4568 3.42399 30.6074 3.42399C29.7754 3.42399 29.0388 3.54533 28.3974 3.78799C27.7561 4.03066 27.2188 4.39466 26.7854 4.87999C26.3521 5.34799 26.0228 5.93733 25.7974 6.64799C25.5894 7.35866 25.4854 8.17333 25.4854 9.09199V9.89799C25.4854 10.7993 25.5894 11.6053 25.7974 12.316C26.0228 13.0093 26.3521 13.5987 26.7854 14.084C27.2188 14.5693 27.7561 14.9333 28.3974 15.176C29.0388 15.4187 29.7754 15.54 30.6074 15.54ZM49.2131 18.4V3.81399H43.4931V0.563993H58.8591V3.81399H53.1131V18.4H49.2131ZM64.0753 18.4V0.563993H78.3233V3.73599H67.9753V7.71399H77.1273V10.86H67.9753V15.202H78.4793V18.4H64.0753ZM84.4234 18.4V0.563993H88.2974V15.098H97.2934V18.4H84.4234ZM0.345863 46.4V28.564H4.16786L8.22386 40.134C8.32786 40.446 8.43186 40.7927 8.53586 41.174C8.6572 41.538 8.7612 41.8847 8.84786 42.214C8.95186 42.5433 9.02986 42.8293 9.08186 43.072H9.26386C9.31586 42.812 9.3852 42.5173 9.47186 42.188C9.55853 41.8413 9.65386 41.486 9.75786 41.122C9.86186 40.758 9.9572 40.4287 10.0439 40.134L14.0999 28.564H17.8959V46.4H15.4259V35.948C15.4259 35.4107 15.4345 34.83 15.4519 34.206C15.4692 33.5647 15.4865 32.984 15.5039 32.464C15.5212 31.9267 15.5299 31.5453 15.5299 31.32H15.3219C15.2699 31.5453 15.1832 31.866 15.0619 32.282C14.9405 32.6807 14.8105 33.1053 14.6719 33.556C14.5505 33.9893 14.4379 34.3793 14.3339 34.726L10.1479 46.4H8.01586L3.82986 34.726C3.72586 34.4313 3.6132 34.0933 3.49186 33.712C3.38786 33.3133 3.2752 32.906 3.15386 32.49C3.04986 32.074 2.94586 31.684 2.84186 31.32H2.65986C2.6772 31.7013 2.68586 32.178 2.68586 32.75C2.7032 33.3047 2.71186 33.868 2.71186 34.44C2.7292 34.9947 2.73786 35.4973 2.73786 35.948V46.4H0.345863ZM24.9595 46.4V28.564H27.4295V46.4H24.9595ZM34.4912 46.4V28.564H43.8772C45.0905 28.564 46.0958 28.7893 46.8932 29.24C47.7078 29.6733 48.3145 30.2887 48.7132 31.086C49.1118 31.866 49.3112 32.7673 49.3112 33.79C49.3112 35.0207 49.0338 36.078 48.4792 36.962C47.9245 37.846 47.1618 38.4787 46.1912 38.86L49.9352 46.4H47.2312L43.7472 39.302H36.9612V46.4H34.4912ZM36.9612 37.196H43.6432C44.6312 37.196 45.4025 36.8927 45.9572 36.286C46.5292 35.6793 46.8152 34.8473 46.8152 33.79C46.8152 33.1313 46.6938 32.5767 46.4512 32.126C46.2085 31.6753 45.8532 31.3287 45.3852 31.086C44.9172 30.826 44.3365 30.696 43.6432 30.696H36.9612V37.196ZM53.9278 46.4L60.9738 28.564H64.2238L71.2958 46.4H68.6178L66.8758 41.98H58.1918L56.4758 46.4H53.9278ZM58.9978 39.874H66.0438L63.8858 34.284C63.8338 34.128 63.7558 33.9113 63.6518 33.634C63.5478 33.3567 63.4351 33.0533 63.3138 32.724C63.1925 32.3773 63.0711 32.0307 62.9498 31.684C62.8285 31.32 62.7158 30.9907 62.6118 30.696H62.4558C62.3345 31.0427 62.1958 31.4413 62.0398 31.892C61.8838 32.3427 61.7278 32.7847 61.5718 33.218C61.4158 33.634 61.2858 33.9893 61.1818 34.284L58.9978 39.874ZM76.3045 46.4V28.564H78.6965L87.3545 40.316C87.4411 40.42 87.5538 40.576 87.6925 40.784C87.8311 40.992 87.9698 41.2 88.1085 41.408C88.2471 41.5987 88.3598 41.772 88.4465 41.928H88.5505C88.5505 41.6507 88.5505 41.382 88.5505 41.122C88.5505 40.8447 88.5505 40.576 88.5505 40.316V28.564H90.9685V46.4H88.7065L79.9445 34.44C79.8231 34.2493 79.6411 33.9807 79.3985 33.634C79.1731 33.2873 78.9825 33.01 78.8265 32.802H78.6965C78.6965 33.0793 78.6965 33.3567 78.6965 33.634C78.6965 33.894 78.6965 34.1627 78.6965 34.44V46.4H76.3045ZM98.049 46.4V28.564H104.705C106.577 28.564 108.172 28.876 109.489 29.5C110.806 30.124 111.812 31.0947 112.505 32.412C113.216 33.712 113.571 35.402 113.571 37.482C113.571 39.5273 113.216 41.2087 112.505 42.526C111.812 43.8433 110.806 44.8227 109.489 45.464C108.172 46.088 106.577 46.4 104.705 46.4H98.049ZM100.519 44.268H104.653C105.641 44.268 106.525 44.1467 107.305 43.904C108.085 43.644 108.752 43.254 109.307 42.734C109.862 42.214 110.278 41.5467 110.555 40.732C110.85 39.9 110.997 38.912 110.997 37.768V37.248C110.997 36.0693 110.85 35.0727 110.555 34.258C110.278 33.426 109.862 32.75 109.307 32.23C108.77 31.71 108.111 31.3287 107.331 31.086C106.551 30.826 105.658 30.696 104.653 30.696H100.519V44.268ZM117.359 46.4L124.405 28.564H127.655L134.727 46.4H132.049L130.307 41.98H121.623L119.907 46.4H117.359ZM122.429 39.874H129.475L127.317 34.284C127.265 34.128 127.187 33.9113 127.083 33.634C126.979 33.3567 126.866 33.0533 126.745 32.724C126.623 32.3773 126.502 32.0307 126.381 31.684C126.259 31.32 126.147 30.9907 126.043 30.696H125.887C125.765 31.0427 125.627 31.4413 125.471 31.892C125.315 32.3427 125.159 32.7847 125.003 33.218C124.847 33.634 124.717 33.9893 124.613 34.284L122.429 39.874Z" fill="#111111"/>
</svg>
