<svg width="172" height="53" viewBox="0 0 172 53" fill="none" xmlns="http://www.w3.org/2000/svg">
<path d="M85.1761 31.2945H69.6481L66.2427 38.7474H64.1396L76.4559 12.269H78.4064L90.7226 38.7474H88.6196L85.1761 31.2945ZM84.4487 29.6689L77.4121 14.3859L70.4136 29.6689H84.4487Z" fill="#002F87"/>
<path d="M112.827 27.2099V38.7474H110.914V27.3619C110.914 22.8972 108.506 20.5523 104.45 20.5523C99.7449 20.5523 96.8763 23.5404 96.8763 28.2303V38.7474H94.9639V18.9997H96.8V23.2744C98.1375 20.5113 100.93 18.8477 104.717 18.8477C109.574 18.8477 112.824 21.6838 112.824 27.2069" fill="#002F87"/>
<path d="M138.488 10.6782V38.7472H136.614V34.0953C135.045 37.1595 132.024 38.8992 128.428 38.8992C122.805 38.8992 118.561 34.7766 118.561 28.8763C118.561 22.9759 122.805 18.8533 128.428 18.8533C131.986 18.8533 134.968 20.593 136.576 23.5812V10.6782H138.488ZM136.576 28.8733C136.576 23.9174 133.135 20.5521 128.545 20.5521C123.955 20.5521 120.514 23.9174 120.514 28.8733C120.514 33.8293 123.958 37.1946 128.545 37.1946C133.132 37.1946 136.576 33.8293 136.576 28.8733Z" fill="#002F87"/>
<path d="M163.423 29.3267H146.249C146.44 34.0166 149.922 37.1948 154.703 37.1948C157.228 37.1948 159.56 36.2855 161.091 34.4318L162.2 35.6803C160.44 37.7971 157.686 38.8965 154.664 38.8965C148.622 38.8965 144.375 34.7359 144.375 28.8735C144.375 23.0112 148.467 18.8506 153.937 18.8506C159.407 18.8506 163.461 22.9352 163.461 28.7975C163.461 28.9496 163.423 29.1396 163.423 29.3267ZM146.287 27.8531H161.587C161.32 23.5784 158.181 20.5143 153.937 20.5143C149.693 20.5143 146.592 23.5404 146.287 27.8531Z" fill="#002F87"/>
<path d="M171.298 10.6782H169.386V38.7472H171.298V10.6782Z" fill="#002F87"/>
<path d="M63.2832 49.2324C63.2832 47.25 64.8026 45.8027 66.847 45.8027C67.8853 45.8027 68.7887 46.1565 69.4017 46.8465L68.777 47.4518C68.2578 46.905 67.6242 46.6565 66.8851 46.6565C65.3687 46.6565 64.2423 47.75 64.2423 49.2324C64.2423 50.7148 65.3657 51.8083 66.8851 51.8083C67.6242 51.8083 68.2578 51.5481 68.777 51.0043L69.4017 51.6066C68.7858 52.2966 67.8853 52.6592 66.8382 52.6592C64.8026 52.6592 63.2832 51.2119 63.2832 49.2324Z" fill="#696B6E"/>
<path d="M76.0419 51.7495V52.5828H71.1611V45.8784H75.9069V46.7117H72.1203V48.773H75.4934V49.5859H72.1203V51.7495H76.0419Z" fill="#696B6E"/>
<path d="M83.7675 45.8784V52.5828H82.9785L78.9425 47.583V52.5828H77.9834V45.8784H78.7695L82.8055 50.8782V45.8784H83.7675Z" fill="#696B6E"/>
<path d="M87.5047 46.7117H85.1992V45.8784H90.7604V46.7117H88.455V52.5828H87.5047V46.7117Z" fill="#696B6E"/>
<path d="M96.6889 52.5828L95.237 50.5244C95.1021 50.5332 94.9583 50.5449 94.8146 50.5449H93.1515V52.5857H92.1924V45.8813H94.8146C96.5628 45.8813 97.6187 46.7614 97.6187 48.2175C97.6187 49.2525 97.0819 49.9981 96.1404 50.3344L97.736 52.5857H96.6889V52.5828ZM96.6596 48.2146C96.6596 47.2585 96.0143 46.7117 94.7853 46.7117H93.1515V49.7291H94.7853C96.0143 49.7291 96.6596 49.1736 96.6596 48.2175" fill="#696B6E"/>
<path d="M99.0146 49.2324C99.0146 47.2676 100.531 45.8027 102.599 45.8027C104.667 45.8027 106.163 47.2588 106.163 49.2324C106.163 51.206 104.643 52.6592 102.599 52.6592C100.555 52.6592 99.0146 51.1943 99.0146 49.2324ZM105.201 49.2324C105.201 47.7471 104.086 46.6565 102.596 46.6565C101.106 46.6565 99.9738 47.75 99.9738 49.2324C99.9738 50.7148 101.088 51.8083 102.596 51.8083C104.104 51.8083 105.201 50.7177 105.201 49.2324Z" fill="#696B6E"/>
<path d="M115.868 51.7495V52.5828H110.987V45.8784H115.733V46.7117H111.946V48.773H115.32V49.5859H111.946V51.7495H115.868Z" fill="#696B6E"/>
<path d="M117.81 45.8784H120.643C122.805 45.8784 124.274 47.238 124.274 49.2321C124.274 51.2261 122.805 52.5828 120.643 52.5828H117.81V45.8784ZM120.584 51.7495C122.247 51.7495 123.312 50.7349 123.312 49.2321C123.312 47.7292 122.244 46.7117 120.584 46.7117H118.769V51.7495H120.584Z" fill="#696B6E"/>
<path d="M126.072 49.6911V45.8784H127.034V49.6502C127.034 51.1355 127.718 51.8051 128.926 51.8051C130.135 51.8051 130.827 51.1355 130.827 49.6502V45.8784H131.76V49.6911C131.76 51.6355 130.692 52.6588 128.914 52.6588C127.137 52.6588 126.072 51.6355 126.072 49.6911Z" fill="#696B6E"/>
<path d="M133.566 49.2324C133.566 47.25 135.086 45.8027 137.13 45.8027C138.168 45.8027 139.072 46.1565 139.685 46.8465L139.06 47.4518C138.541 46.905 137.907 46.6565 137.168 46.6565C135.652 46.6565 134.526 47.75 134.526 49.2324C134.526 50.7148 135.649 51.8083 137.168 51.8083C137.907 51.8083 138.541 51.5481 139.06 51.0043L139.685 51.6066C139.069 52.2966 138.166 52.6592 137.121 52.6592C135.086 52.6592 133.566 51.2119 133.566 49.2324Z" fill="#696B6E"/>
<path d="M145.566 50.9074H141.993L141.254 52.5828H140.266L143.31 45.8784H144.261L147.317 52.5828H146.308L145.569 50.9074H145.566ZM145.228 50.1414L143.777 46.855L142.325 50.1414H145.226H145.228Z" fill="#696B6E"/>
<path d="M149.699 46.7117H147.394V45.8784H152.958V46.7117H150.649V52.5828H149.699V46.7117Z" fill="#696B6E"/>
<path d="M155.348 45.8784H154.389V52.5828H155.348V45.8784Z" fill="#696B6E"/>
<path d="M163.526 45.8784L160.575 52.5828H159.625L156.665 45.8784H157.703L160.123 51.3869L162.564 45.8784H163.526Z" fill="#696B6E"/>
<path d="M164.15 49.2324C164.15 47.2676 165.67 45.8027 167.735 45.8027C169.8 45.8027 171.298 47.2588 171.298 49.2324C171.298 51.206 169.779 52.6592 167.735 52.6592C165.69 52.6592 164.15 51.1943 164.15 49.2324ZM170.336 49.2324C170.336 47.7471 169.222 46.6565 167.732 46.6565C166.242 46.6565 165.11 47.75 165.11 49.2324C165.11 50.7148 166.224 51.8083 167.732 51.8083C169.239 51.8083 170.336 50.7177 170.336 49.2324Z" fill="#696B6E"/>
<path d="M0.569581 45.1886C9.81775 41.1712 15.1062 33.5984 19.4912 24.8298C13.0266 23.7743 6.76729 22.751 0.361328 21.7071V17.1284C7.26593 18.2219 14.2321 19.3242 21.2188 20.4294C22.8849 17.2921 23.9056 14.073 24.1989 10.6959C24.4893 7.3452 24.4834 3.96816 24.6125 0.480007C25.8943 0.152536 27.2904 0.36013 28.8333 0.249023C28.8773 0.792859 28.9301 1.26067 28.9506 1.73141C29.1852 7.82764 29.9596 13.8449 31.7224 19.6985C32.6082 22.6428 31.8925 21.9411 34.9137 22.4469C40.252 23.3445 45.6049 24.1632 50.9491 25.0199C52.1927 25.2187 53.4335 25.4292 54.7651 25.6456C54.8502 27.2771 54.9323 28.8296 55.0262 30.5606C48.2066 29.4641 41.5924 28.3998 34.6555 27.2858C36.8114 31.7623 39.2312 35.6802 42.3022 39.1888C45.3761 42.6975 48.9604 45.5248 53.3777 47.3376C53.4657 49.0481 53.5537 50.7322 53.6534 52.6385C53.014 52.3695 52.5623 52.2029 52.1341 51.9924C45.0887 48.5539 39.6096 43.3787 35.3272 36.8848C33.409 33.9785 31.8104 30.9026 30.5345 27.6659C30.2206 26.8707 29.8276 26.4379 28.9242 26.3356C27.1819 26.1339 25.4543 25.7947 23.5624 25.4877C21.4828 31.0196 18.5174 35.9755 14.5401 40.297C10.5892 44.5892 5.99295 47.9984 0.490386 50.4076C0.202939 48.5598 0.675174 46.8932 0.575447 45.1915M26.8886 16.6167C26.7771 16.6226 26.6686 16.6313 26.5601 16.6372C26.038 18.0816 25.5159 19.523 24.9674 21.0405C26.0879 21.2803 27.0177 21.52 28.0912 21.2013C27.6776 19.6195 27.2816 18.1196 26.8886 16.6167Z" fill="#002F87"/>
</svg>
