<!--?xml version="1.0" standalone="no"?-->
              <svg id="sw-js-blob-svg" viewBox="0 0 100 100" xmlns="http://www.w3.org/2000/svg" version="1.1">
                    <defs> 
                        <linearGradient id="sw-gradient" x1="0" x2="1" y1="1" y2="0">
                            <stop id="stop1" stop-color="rgba(179, 179, 179, 1)" offset="0%"></stop>
                            <stop id="stop2" stop-color="rgba(179, 179, 179, 1)" offset="100%"></stop>
                        </linearGradient>
                    </defs>
                <path fill="url(#sw-gradient)" d="M24.9,-30.8C31.5,-24.1,35.7,-15.6,36.5,-7.1C37.3,1.4,34.6,9.9,30.2,17.4C25.9,24.9,19.8,31.4,11.9,35.6C4,39.7,-5.8,41.4,-12.7,37.7C-19.6,34,-23.5,24.9,-27.8,16.5C-32.1,8.1,-36.7,0.4,-35.4,-6.1C-34.1,-12.6,-26.7,-17.9,-19.8,-24.5C-12.9,-31.2,-6.5,-39.2,1.3,-40.8C9.1,-42.4,18.2,-37.5,24.9,-30.8Z" width="100%" height="100%" transform="translate(50 50)" stroke-width="0" style="transition: all 0.3s ease 0s;" stroke="url(#sw-gradient)"></path>
              </svg>